<?xml version="1.0" encoding="utf-8"?>
<!-- Generator: Adobe Illustrator 23.0.1, SVG Export Plug-In . SVG Version: 6.00 Build 0)  -->
<svg version="1.1" id="Layer_1" xmlns="http://www.w3.org/2000/svg" xmlns:xlink="http://www.w3.org/1999/xlink" x="0px" y="0px"
	 viewBox="0 0 500 500" style="enable-background:new 0 0 500 500;" xml:space="preserve">
<style type="text/css">
	.st0{clip-path:url(#SVGID_2_);}
	.st1{fill:url(#SVGID_3_);}
	.st2{clip-path:url(#SVGID_5_);}
	.st3{fill:none;}
	.st4{fill:url(#SVGID_6_);}
	.st5{clip-path:url(#SVGID_8_);}
	.st6{fill:url(#SVGID_9_);}
	.st7{clip-path:url(#SVGID_11_);}
	.st8{fill:url(#SVGID_12_);}
	.st9{clip-path:url(#SVGID_14_);}
	.st10{fill:url(#SVGID_15_);}
	.st11{clip-path:url(#SVGID_17_);}
	.st12{fill:url(#SVGID_18_);}
	.st13{clip-path:url(#SVGID_20_);}
	.st14{enable-background:new    ;}
	.st15{fill:#FFFFFF;}
	.st16{font-family:'Arial-BoldMT';}
	.st17{font-size:10.448px;}
	.st18{clip-path:url(#SVGID_22_);}
	.st19{clip-path:url(#SVGID_24_);}
	.st20{clip-path:url(#SVGID_26_);}
	.st21{clip-path:url(#SVGID_28_);}
	.st22{clip-path:url(#SVGID_30_);}
	.st23{opacity:0.5;enable-background:new    ;}
	.st24{fill:url(#SVGID_31_);}
	.st25{fill:url(#SVGID_32_);}
	.st26{fill:url(#SVGID_33_);}
	.st27{fill:url(#SVGID_34_);}
	.st28{fill:url(#SVGID_35_);}
	.st29{fill:url(#SVGID_36_);}
	.st30{fill:url(#SVGID_37_);}
	.st31{clip-path:url(#SVGID_39_);}
	.st32{fill:url(#SVGID_40_);}
</style>
<g>
	<g>
		<g>
			<defs>
				<rect id="SVGID_1_" width="500" height="500"/>
			</defs>
			<clipPath id="SVGID_2_">
				<use xlink:href="#SVGID_1_"  style="overflow:visible;"/>
			</clipPath>
			<g class="st0">
				
					<linearGradient id="SVGID_3_" gradientUnits="userSpaceOnUse" x1="-205.1272" y1="489.9485" x2="-206.157" y2="489.4132" gradientTransform="matrix(189.248 0 0 -195.88 39028.0547 96104.8828)">
					<stop  offset="0" style="stop-color:#00BFB3"/>
					<stop  offset="9.999999e-02" style="stop-color:#00C0B3"/>
					<stop  offset="0.2" style="stop-color:#00C1B5"/>
					<stop  offset="0.3" style="stop-color:#00C5B8"/>
					<stop  offset="0.4" style="stop-color:#00C9BD"/>
					<stop  offset="0.5" style="stop-color:#00D0C3"/>
					<stop  offset="0.6" style="stop-color:#00D8CA"/>
					<stop  offset="0.7" style="stop-color:#00E2D3"/>
					<stop  offset="0.8" style="stop-color:#0FECDE"/>
					<stop  offset="0.9" style="stop-color:#31F6E9"/>
					<stop  offset="1" style="stop-color:#54FFF4"/>
				</linearGradient>
				<path class="st1" d="M81,128.1c-12.5,7.2-20.3,20.6-20.3,35.1l0,0v126.3c0-14.5,7.7-27.9,20.3-35.1l0,0l0,0l169-97.6L140.6,93.7
					L81,128.1z"/>
				<g>
					<g>
						<g>
							<defs>
								<rect id="SVGID_4_" width="500" height="500"/>
							</defs>
							<clipPath id="SVGID_5_">
								<use xlink:href="#SVGID_4_"  style="overflow:visible;"/>
							</clipPath>
							<g class="st2">
								<g>
									<path class="st3" d="M162.1,207.6l87.8-50.7L140.6,93.7L82,127.5L162.1,207.6z"/>
								</g>
							</g>
						</g>
					</g>
				</g>
				
					<linearGradient id="SVGID_6_" gradientUnits="userSpaceOnUse" x1="-205.7353" y1="490.0104" x2="-205.0845" y2="489.5887" gradientTransform="matrix(209.598 0 0 -166.176 43300.1406 81493.0547)">
					<stop  offset="0" style="stop-color:#FFCE3B"/>
					<stop  offset="9.999999e-02" style="stop-color:#FFC83B"/>
					<stop  offset="0.2" style="stop-color:#FFBF3B"/>
					<stop  offset="0.3" style="stop-color:#FFBA3B"/>
					<stop  offset="0.4" style="stop-color:#FFB93B"/>
					<stop  offset="0.5" style="stop-color:#FFB83B"/>
					<stop  offset="0.6" style="stop-color:#FFB73B"/>
					<stop  offset="0.7" style="stop-color:#FFB53B"/>
					<stop  offset="0.8" style="stop-color:#FFB43B"/>
					<stop  offset="0.9" style="stop-color:#FFB23B"/>
					<stop  offset="1" style="stop-color:#FFB13B"/>
				</linearGradient>
				<path class="st4" d="M229.7,42.2l-109.4,63.1c12.5-7.3,28-7.3,40.6,0l0,0l0,0l169,97.6l0,0l0,0V76.7l-59.7-34.5
					c-6.3-3.6-13.3-5.4-20.3-5.4l0,0C243,36.8,236,38.6,229.7,42.2z"/>
				<g>
					<g>
						<g>
							<defs>
								<rect id="SVGID_7_" width="500" height="500"/>
							</defs>
							<clipPath id="SVGID_8_">
								<use xlink:href="#SVGID_7_"  style="overflow:visible;"/>
							</clipPath>
							<g class="st5">
								<g>
									<path class="st3" d="M272.3,43.4v126.3L330,203l0,0l0,0V76.7L272.3,43.4z"/>
								</g>
							</g>
						</g>
					</g>
				</g>
				
					<linearGradient id="SVGID_9_" gradientUnits="userSpaceOnUse" x1="-204.9039" y1="489.984" x2="-204.9039" y2="-7504.3555" gradientTransform="matrix(129.656 0 0 -230.363 26941.416 112972.8281)">
					<stop  offset="0" style="stop-color:#FF9136"/>
					<stop  offset="9.999999e-02" style="stop-color:#FA8A2E"/>
					<stop  offset="0.2" style="stop-color:#F48425"/>
					<stop  offset="0.3" style="stop-color:#F27E22"/>
					<stop  offset="0.4" style="stop-color:#F27A22"/>
					<stop  offset="0.5" style="stop-color:#F27522"/>
					<stop  offset="0.6" style="stop-color:#F27022"/>
					<stop  offset="0.7" style="stop-color:#F26C22"/>
					<stop  offset="0.8" style="stop-color:#F26722"/>
					<stop  offset="0.9" style="stop-color:#F26322"/>
					<stop  offset="1" style="stop-color:#F25E22"/>
				</linearGradient>
				<path class="st6" d="M329.9,100L329.9,100v102.9v92.3l109.3-63.1v-68.9c0-14.5-7.7-27.9-20.3-35.1l0,0L309.6,65
					C322.2,72.2,329.9,85.6,329.9,100z"/>
				<g>
					<g>
						<g>
							<defs>
								<rect id="SVGID_10_" width="500" height="500"/>
							</defs>
							<clipPath id="SVGID_11_">
								<use xlink:href="#SVGID_10_"  style="overflow:visible;"/>
							</clipPath>
							<g class="st7">
								<g>
									<path class="st3" d="M330,185.5v109.8l109.3-63.1v-46.7L330,185.5L330,185.5z"/>
								</g>
							</g>
						</g>
					</g>
				</g>
				
					<linearGradient id="SVGID_12_" gradientUnits="userSpaceOnUse" x1="-205.9224" y1="489.562" x2="-204.8157" y2="489.6871" gradientTransform="matrix(189.23 0 0 -195.782 39213.6602 96171.9453)">
					<stop  offset="0" style="stop-color:#E84398"/>
					<stop  offset="9.999999e-02" style="stop-color:#E8529F"/>
					<stop  offset="0.2" style="stop-color:#E85CA4"/>
					<stop  offset="0.3" style="stop-color:#E862A7"/>
					<stop  offset="0.4" style="stop-color:#E865A9"/>
					<stop  offset="0.5" style="stop-color:#E866A9"/>
					<stop  offset="0.6" style="stop-color:#ED6BAE"/>
					<stop  offset="0.7" style="stop-color:#F371B4"/>
					<stop  offset="0.8" style="stop-color:#F577B7"/>
					<stop  offset="0.9" style="stop-color:#F587C0"/>
					<stop  offset="1" style="stop-color:#F589C1"/>
				</linearGradient>
				<path class="st8" d="M419,243.9L419,243.9l-169,97.6l109.3,63.1l59.7-34.5c12.5-7.2,20.3-20.6,20.3-35.1l0,0V208.8
					C439.3,223.3,431.6,236.6,419,243.9z"/>
				<g>
					<g>
						<g>
							<defs>
								<rect id="SVGID_13_" width="500" height="500"/>
							</defs>
							<clipPath id="SVGID_14_">
								<use xlink:href="#SVGID_13_"  style="overflow:visible;"/>
							</clipPath>
							<g class="st9">
								<g>
									<path class="st3" d="M337.6,290.9l-87.5,50.5l109.3,63.1l58.3-33.6C391,344.2,364.3,317.5,337.6,290.9z"/>
								</g>
							</g>
						</g>
					</g>
				</g>
				
					<linearGradient id="SVGID_15_" gradientUnits="userSpaceOnUse" x1="-205.7404" y1="489.9854" x2="-205.3807" y2="489.2287" gradientTransform="matrix(209.582 0 0 -166.147 43346.5078 81737.2813)">
					<stop  offset="0" style="stop-color:#6F59C2"/>
					<stop  offset="9.999999e-02" style="stop-color:#6F59C2"/>
					<stop  offset="0.2" style="stop-color:#6F59C2"/>
					<stop  offset="0.3" style="stop-color:#765ECD"/>
					<stop  offset="0.4" style="stop-color:#7961D3"/>
					<stop  offset="0.5" style="stop-color:#7B62D6"/>
					<stop  offset="0.6" style="stop-color:#7B62D6"/>
					<stop  offset="0.7" style="stop-color:#8067DB"/>
					<stop  offset="0.8" style="stop-color:#8A71E7"/>
					<stop  offset="0.9" style="stop-color:#957CF3"/>
					<stop  offset="1" style="stop-color:#A187FF"/>
				</linearGradient>
				<path class="st10" d="M170,421.5l59.7,34.5c12.5,7.2,28,7.2,40.5,0l0,0l109.3-63.1c-12.5,7.3-28,7.3-40.6,0l0,0l0,0l-169-97.6
					l0,0l0,0v126.2H170z"/>
				<g>
					<g>
						<g>
							<defs>
								<rect id="SVGID_16_" width="500" height="500"/>
							</defs>
							<clipPath id="SVGID_17_">
								<use xlink:href="#SVGID_16_"  style="overflow:visible;"/>
							</clipPath>
							<g class="st11">
								<g>
									<path class="st3" d="M245.5,338.8l-75.4-43.5l0,0l0,0v126.3l59.7,34.5c4.9,2.8,10.3,4.5,15.7,5.2V338.8z"/>
								</g>
							</g>
						</g>
					</g>
				</g>
				
					<linearGradient id="SVGID_18_" gradientUnits="userSpaceOnUse" x1="-204.9024" y1="489.8593" x2="-204.9024" y2="-7510.1406" gradientTransform="matrix(129.566 0 0 -230.155 26673.8789 113008.9609)">
					<stop  offset="0" style="stop-color:#0094CF"/>
					<stop  offset="9.999999e-02" style="stop-color:#0095D1"/>
					<stop  offset="0.2" style="stop-color:#0097D3"/>
					<stop  offset="0.3" style="stop-color:#0098D5"/>
					<stop  offset="0.4" style="stop-color:#009AD7"/>
					<stop  offset="0.5" style="stop-color:#009BD9"/>
					<stop  offset="0.6" style="stop-color:#009DDB"/>
					<stop  offset="0.7" style="stop-color:#009EDD"/>
					<stop  offset="0.8" style="stop-color:#08A5E3"/>
					<stop  offset="0.9" style="stop-color:#1FB6F1"/>
					<stop  offset="1" style="stop-color:#36C7FF"/>
				</linearGradient>
				<path class="st12" d="M80.9,254.5c-12.5,7.2-20.2,20.5-20.2,34.9l0,0V335c0,14.5,7.7,27.9,20.3,35.1l0,0l59.9,34.6h-0.1
					l49.5,28.5c-11.8-6.8-19.4-19.1-20.3-32.6l0,0V203L80.9,254.5z"/>
				<g>
					<g>
						<g>
							<defs>
								<rect id="SVGID_19_" width="500" height="500"/>
							</defs>
							<clipPath id="SVGID_20_">
								<use xlink:href="#SVGID_19_"  style="overflow:visible;"/>
							</clipPath>
							<g class="st13">
								<g>
									<g transform="matrix(1,0,0,1,337.84,129)">
										<g class="st14">
											
												<image style="overflow:visible;enable-background:new    ;" width="1" height="1" id="img_asbE7cHPvgalynwCxWH8EIIcMNEfXH34" xlink:href="BC230A8.png"  transform="matrix(1 0 0 1 337.84 129)">
											</image>
										</g>
									</g>
								</g>
							</g>
						</g>
					</g>
				</g>
				<text transform="matrix(1 0 0 1 343.1055 182.6689)" class="st15 st16 st17">Spheroid models</text>
				<text transform="matrix(1 0 0 1 343.1055 195.1689)" class="st15 st16 st17">for metabolic </text>
				<text transform="matrix(1 0 0 1 343.1055 207.7689)" class="st15 st16 st17">diseases and </text>
				<text transform="matrix(1 0 0 1 343.1055 220.2689)" class="st15 st16 st17">cancer </text>
				<g>
					<g>
						<g>
							<defs>
								<rect id="SVGID_21_" width="500" height="500"/>
							</defs>
							<clipPath id="SVGID_22_">
								<use xlink:href="#SVGID_21_"  style="overflow:visible;"/>
							</clipPath>
							<g class="st18">
								<g>
									<g transform="matrix(1,0,0,1,291.28,282.6)">
										<g class="st14">
											
												<image style="overflow:visible;enable-background:new    ;" width="1" height="1" id="img_tY344v0oX7o8WT5uXH2V5V53sPQSZZD8" xlink:href="BC230A9.png"  transform="matrix(1 0 0 1 291.28 282.6)">
											</image>
										</g>
									</g>
								</g>
							</g>
						</g>
					</g>
				</g>
				<text transform="matrix(1 0 0 1 182.6943 87.1172)" class="st15 st16 st17">Stem cell/patient-derived</text>
				<text transform="matrix(1 0 0 1 204.0918 101.3379)" class="st15 st16 st17">organoid models</text>
				<text transform="matrix(1 0 0 1 194.083 115.5596)" class="st15 st16 st17">for personalized care</text>
				<g>
					<g>
						<g>
							<defs>
								<rect id="SVGID_23_" width="500" height="500"/>
							</defs>
							<clipPath id="SVGID_24_">
								<use xlink:href="#SVGID_23_"  style="overflow:visible;"/>
							</clipPath>
							<g class="st19">
								<g>
									<g transform="matrix(1,0,0,1,184.48,329)">
										<g class="st14">
											
												<image style="overflow:visible;enable-background:new    ;" width="1" height="1" id="img_O1du4uCtPV4Xw4rVCum8BdfQ10nCiYmn" xlink:href="BC230AF.png"  transform="matrix(1 0 0 1 184.48 329)">
											</image>
										</g>
									</g>
								</g>
							</g>
						</g>
					</g>
				</g>
				<text transform="matrix(1 0 0 1 184.0537 381.2852)" class="st15 st16 st17">Strategic Businesses,</text>
				<text transform="matrix(1 0 0 1 175.4189 395.5078)" class="st15 st16 st17">Scientific Collaborations</text>
				<text transform="matrix(1 0 0 1 206.8398 409.7285)" class="st15 st16 st17">&amp; Partnering</text>
				<g>
					<g>
						<g>
							<defs>
								<rect id="SVGID_25_" width="500" height="500"/>
							</defs>
							<clipPath id="SVGID_26_">
								<use xlink:href="#SVGID_25_"  style="overflow:visible;"/>
							</clipPath>
							<g class="st20">
								<g>
									<g transform="matrix(1,0,0,1,74.28,241.56)">
										<g class="st14">
											
												<image style="overflow:visible;enable-background:new    ;" width="1" height="1" id="img_WLZ5Jdu04D0uvkOLMxw5QE91q4Thwd7P" xlink:href="BC230AA.png"  transform="matrix(1 0 0 1 74.28 241.56)">
											</image>
										</g>
									</g>
								</g>
							</g>
						</g>
					</g>
				</g>
				<text transform="matrix(1 0 0 1 83.2642 301.4053)" class="st15 st16 st17">Pre-Clinical</text>
				<text transform="matrix(1 0 0 1 65.2803 315.627)" class="st15 st16 st17">Pathology Services</text>
				<g>
					<g>
						<g>
							<defs>
								<rect id="SVGID_27_" width="500" height="500"/>
							</defs>
							<clipPath id="SVGID_28_">
								<use xlink:href="#SVGID_27_"  style="overflow:visible;"/>
							</clipPath>
							<g class="st21">
								<g>
									<g transform="matrix(1,0,0,1,76.48,128)">
										<g class="st14">
											
												<image style="overflow:visible;enable-background:new    ;" width="1" height="1" id="img_XWcgWMKktW4N4zTS84AA3TVzq2lDJ9vh" xlink:href="BC230AB.png"  transform="matrix(1 0 0 1 76.48 128)">
											</image>
										</g>
									</g>
								</g>
							</g>
						</g>
					</g>
				</g>
				<text transform="matrix(1 0 0 1 290.4619 338.8789)" class="st15 st16 st17">Workshops &amp; Conferences</text>
				<g>
					<g>
						<g>
							<defs>
								<rect id="SVGID_29_" width="500" height="500"/>
							</defs>
							<clipPath id="SVGID_30_">
								<use xlink:href="#SVGID_29_"  style="overflow:visible;"/>
							</clipPath>
							<g class="st22">
								<g>
									<g class="st23">
										
											<image style="overflow:visible;enable-background:new    ;" width="1" height="1" xlink:href="BC230A6.png"  transform="matrix(1 0 0 1 168.28 161.56)">
										</image>
									</g>
								</g>
							</g>
						</g>
					</g>
				</g>
				
					<linearGradient id="SVGID_31_" gradientUnits="userSpaceOnUse" x1="3423.8245" y1="1128.979" x2="3423.8245" y2="1128.979" gradientTransform="matrix(5.700000e-02 0 0 -4.700000e-02 54.742 302.062)">
					<stop  offset="0" style="stop-color:#D55A99"/>
					<stop  offset="9.999999e-02" style="stop-color:#D75B9B"/>
					<stop  offset="0.2" style="stop-color:#D95D9D"/>
					<stop  offset="0.3" style="stop-color:#DC5E9E"/>
					<stop  offset="0.4" style="stop-color:#DE5FA0"/>
					<stop  offset="0.5" style="stop-color:#E061A2"/>
					<stop  offset="0.6" style="stop-color:#E262A4"/>
					<stop  offset="0.7" style="stop-color:#E363A5"/>
					<stop  offset="0.8" style="stop-color:#E564A7"/>
					<stop  offset="0.9" style="stop-color:#E765A8"/>
					<stop  offset="1" style="stop-color:#E866A9"/>
				</linearGradient>
				<path class="st24" d="M249.9,249L249.9,249L249.9,249L249.9,249L249.9,249z"/>
				
					<linearGradient id="SVGID_32_" gradientUnits="userSpaceOnUse" x1="-203.9968" y1="489.8043" x2="-203.2093" y2="490.2835" gradientTransform="matrix(68.081 0 0 -78.638 14135.7666 38811.6992)">
					<stop  offset="0" style="stop-color:#E84398"/>
					<stop  offset="9.999999e-02" style="stop-color:#E8529F"/>
					<stop  offset="0.2" style="stop-color:#E85CA4"/>
					<stop  offset="0.3" style="stop-color:#E862A7"/>
					<stop  offset="0.4" style="stop-color:#E865A9"/>
					<stop  offset="0.5" style="stop-color:#E866A9"/>
					<stop  offset="0.6" style="stop-color:#ED6BAE"/>
					<stop  offset="0.7" style="stop-color:#F371B4"/>
					<stop  offset="0.8" style="stop-color:#F577B7"/>
					<stop  offset="0.9" style="stop-color:#F587C0"/>
					<stop  offset="1" style="stop-color:#F589C1"/>
				</linearGradient>
				<path class="st25" d="M250,327.7l68.1-39.3l0,0L250,249.1V327.7z"/>
				
					<linearGradient id="SVGID_33_" gradientUnits="userSpaceOnUse" x1="-203.4442" y1="490.3085" x2="-203.4655" y2="489.3591" gradientTransform="matrix(68.081 0 0 -78.605 14135.7666 38756.25)">
					<stop  offset="0" style="stop-color:#FF9136"/>
					<stop  offset="9.999999e-02" style="stop-color:#FA8A2E"/>
					<stop  offset="0.2" style="stop-color:#F48425"/>
					<stop  offset="0.3" style="stop-color:#F27E22"/>
					<stop  offset="0.4" style="stop-color:#F27A22"/>
					<stop  offset="0.5" style="stop-color:#F27522"/>
					<stop  offset="0.6" style="stop-color:#F27022"/>
					<stop  offset="0.7" style="stop-color:#F26C22"/>
					<stop  offset="0.8" style="stop-color:#F26722"/>
					<stop  offset="0.9" style="stop-color:#F26322"/>
					<stop  offset="1" style="stop-color:#F25E22"/>
				</linearGradient>
				<path class="st26" d="M250,249L250,249L250,249l68.1,39.4v-0.1v-78.5L250,249z"/>
				
					<linearGradient id="SVGID_34_" gradientUnits="userSpaceOnUse" x1="-204.1231" y1="489.9698" x2="-203.3249" y2="489.5638" gradientTransform="matrix(68.081 0 0 -78.522 14135.7666 38676.2734)">
					<stop  offset="0" style="stop-color:#FFCE3B"/>
					<stop  offset="9.999999e-02" style="stop-color:#FFC83B"/>
					<stop  offset="0.2" style="stop-color:#FFBF3B"/>
					<stop  offset="0.3" style="stop-color:#FFBA3B"/>
					<stop  offset="0.4" style="stop-color:#FFB93B"/>
					<stop  offset="0.5" style="stop-color:#FFB83B"/>
					<stop  offset="0.6" style="stop-color:#FFB73B"/>
					<stop  offset="0.7" style="stop-color:#FFB53B"/>
					<stop  offset="0.8" style="stop-color:#FFB43B"/>
					<stop  offset="0.9" style="stop-color:#FFB23B"/>
					<stop  offset="1" style="stop-color:#FFB13B"/>
				</linearGradient>
				<path class="st27" d="M250,248.4v0.6l68.1-39.2l0,0l-0.6-0.4L250,170.5V248.4z"/>
				
					<linearGradient id="SVGID_35_" gradientUnits="userSpaceOnUse" x1="-203.4547" y1="490.3529" x2="-203.4653" y2="489.4756" gradientTransform="matrix(68.023 0 0 -78.451 14055.6816 38680.7617)">
					<stop  offset="0" style="stop-color:#0094CF"/>
					<stop  offset="9.999999e-02" style="stop-color:#0095D1"/>
					<stop  offset="0.2" style="stop-color:#0097D3"/>
					<stop  offset="0.3" style="stop-color:#0098D5"/>
					<stop  offset="0.4" style="stop-color:#009AD7"/>
					<stop  offset="0.5" style="stop-color:#009BD9"/>
					<stop  offset="0.6" style="stop-color:#009DDB"/>
					<stop  offset="0.7" style="stop-color:#009EDD"/>
					<stop  offset="0.8" style="stop-color:#08A5E3"/>
					<stop  offset="0.9" style="stop-color:#1FB6F1"/>
					<stop  offset="1" style="stop-color:#36C7FF"/>
				</linearGradient>
				<path class="st28" d="M181.9,209.8L181.9,209.8v77.9v0.6l68-39.2L181.9,209.8L181.9,209.8z"/>
				
					<linearGradient id="SVGID_36_" gradientUnits="userSpaceOnUse" x1="-203.7328" y1="490.2299" x2="-202.5684" y2="489.7047" gradientTransform="matrix(68.08 0 0 -78.67 14067.4805 38827.3477)">
					<stop  offset="0" style="stop-color:#6F59C2"/>
					<stop  offset="9.999999e-02" style="stop-color:#6F59C2"/>
					<stop  offset="0.2" style="stop-color:#6F59C2"/>
					<stop  offset="0.3" style="stop-color:#765ECD"/>
					<stop  offset="0.4" style="stop-color:#7961D3"/>
					<stop  offset="0.5" style="stop-color:#7B62D6"/>
					<stop  offset="0.6" style="stop-color:#7B62D6"/>
					<stop  offset="0.7" style="stop-color:#8067DB"/>
					<stop  offset="0.8" style="stop-color:#8A71E7"/>
					<stop  offset="0.9" style="stop-color:#957CF3"/>
					<stop  offset="1" style="stop-color:#A187FF"/>
				</linearGradient>
				<path class="st29" d="M181.9,288.2v0.2l68.1,39.3v-78.6h-0.1L181.9,288.2z"/>
				
					<linearGradient id="SVGID_37_" gradientUnits="userSpaceOnUse" x1="-202.7927" y1="490.026" x2="-203.7865" y2="489.436" gradientTransform="matrix(68.043 0 0 -78.556 14059.8574 38692.9297)">
					<stop  offset="0" style="stop-color:#00BFB3"/>
					<stop  offset="9.999999e-02" style="stop-color:#00C0B3"/>
					<stop  offset="0.2" style="stop-color:#00C1B5"/>
					<stop  offset="0.3" style="stop-color:#00C5B8"/>
					<stop  offset="0.4" style="stop-color:#00C9BD"/>
					<stop  offset="0.5" style="stop-color:#00D0C3"/>
					<stop  offset="0.6" style="stop-color:#00D8CA"/>
					<stop  offset="0.7" style="stop-color:#00E2D3"/>
					<stop  offset="0.8" style="stop-color:#0FECDE"/>
					<stop  offset="0.9" style="stop-color:#31F6E9"/>
					<stop  offset="1" style="stop-color:#54FFF4"/>
				</linearGradient>
				<path class="st30" d="M182,209.8l68,39.3l0,0l-0.6-0.3l0.6-0.3v-77.9L182,209.8z"/>
				<g>
					<g>
						<g>
							<defs>
								<rect id="SVGID_38_" width="500" height="500"/>
							</defs>
							<clipPath id="SVGID_39_">
								<use xlink:href="#SVGID_38_"  style="overflow:visible;"/>
							</clipPath>
							<g class="st31">
								<g>
									<g class="st23">
										
											<image style="overflow:visible;enable-background:new    ;" width="1" height="1" xlink:href="BC230A7.png"  transform="matrix(1 0 0 1 177.48 170)">
										</image>
									</g>
								</g>
								<path class="st15" d="M191.2,213.8v67.9l58.8,34l58.8-34v-67.9l-58.8-34L191.2,213.8z"/>
							</g>
						</g>
					</g>
				</g>
				
					<linearGradient id="SVGID_40_" gradientUnits="userSpaceOnUse" x1="-204.7406" y1="490.3628" x2="-204.7406" y2="-7509.6372" gradientTransform="matrix(117.651 0 0 -135.851 24337.9316 66777.1641)">
					<stop  offset="0" style="stop-color:#D6D6D2"/>
					<stop  offset="9.999999e-02" style="stop-color:#DFDFDC"/>
					<stop  offset="0.2" style="stop-color:#E7E7E5"/>
					<stop  offset="0.3" style="stop-color:#EEEEEC"/>
					<stop  offset="0.4" style="stop-color:#F3F3F2"/>
					<stop  offset="0.5" style="stop-color:#F7F7F7"/>
					<stop  offset="0.6" style="stop-color:#FBFBFA"/>
					<stop  offset="0.7" style="stop-color:#FDFDFD"/>
					<stop  offset="0.8" style="stop-color:#FEFEFE"/>
					<stop  offset="0.9" style="stop-color:#FFFFFF"/>
					<stop  offset="1" style="stop-color:#FFFFFF"/>
				</linearGradient>
				<path class="st32" d="M191.2,214.1V282l58.8,34l58.8-34v-67.9l-58.8-34L191.2,214.1z"/>
			</g>
		</g>
	</g>
</g>
<text transform="matrix(1 0 0 1 79.7832 163.8901)" class="st15 st16 st17">Spheroid models for</text>
<text transform="matrix(1 0 0 1 79.7832 176.3901)" class="st15 st16 st17"> infectious diseases</text>
<g>
	<g transform="matrix(0.157,0,0,0.157,206.029,224.405)">
		<g class="st14">
			
				<image style="overflow:visible;enable-background:new    ;" width="571" height="302" id="img_SMxTewtYb4tGvR3JP1LOiqD4bHhIBE8Z" xlink:href="BC230B8.png"  transform="matrix(1.0187 0 0 1.0187 -9.2576 -23.1421)">
			</image>
		</g>
	</g>
</g>
</svg>
